<?xml version="1.0" encoding="UTF-8" standalone="no"?>
<!-- Created with Inkscape (http://www.inkscape.org/) -->

<svg
   xmlns:osb="http://www.openswatchbook.org/uri/2009/osb"
   xmlns:dc="http://purl.org/dc/elements/1.1/"
   xmlns:cc="http://creativecommons.org/ns#"
   xmlns:rdf="http://www.w3.org/1999/02/22-rdf-syntax-ns#"
   xmlns:svg="http://www.w3.org/2000/svg"
   xmlns="http://www.w3.org/2000/svg"
   xmlns:xlink="http://www.w3.org/1999/xlink"
   xmlns:sodipodi="http://sodipodi.sourceforge.net/DTD/sodipodi-0.dtd"
   xmlns:inkscape="http://www.inkscape.org/namespaces/inkscape"
   width="210mm"
   height="297mm"
   viewBox="0 0 744.09448819 1052.3622047"
   id="svg3739"
   version="1.1"
   inkscape:version="0.91 r13725"
   sodipodi:docname="Icon 100.svg">
  <defs
     id="defs3741">
    <linearGradient
       id="linearGradient5743"
       osb:paint="gradient">
      <stop
         style="stop-color:#3eff00;stop-opacity:1"
         offset="0"
         id="stop5745" />
      <stop
         id="stop5753"
         offset="0.31827101"
         style="stop-color:#989e00;stop-opacity:0.74901962" />
      <stop
         id="stop5751"
         offset="0.70639998"
         style="stop-color:#ff0000;stop-opacity:0.49803922;" />
      <stop
         style="stop-color:#ff2000;stop-opacity:0"
         offset="1"
         id="stop5747" />
    </linearGradient>
    <linearGradient
       id="linearGradient4287"
       osb:paint="solid">
      <stop
         style="stop-color:#ff0002;stop-opacity:0.99607843;"
         offset="0"
         id="stop4289" />
    </linearGradient>
    <linearGradient
       id="linearGradient4275"
       osb:paint="gradient">
      <stop
         id="stop4277"
         offset="0"
         style="stop-color:#ff0200;stop-opacity:1" />
      <stop
         style="stop-color:#d20002;stop-opacity:0.62352943"
         offset="0.15510044"
         id="stop5828" />
      <stop
         id="stop3397"
         offset="0.72021365"
         style="stop-color:#bb2301;stop-opacity:0.43529412;" />
      <stop
         style="stop-color:#a56d00;stop-opacity:0.49411765"
         offset="0.9041906"
         id="stop4281" />
      <stop
         id="stop4283"
         offset="1"
         style="stop-color:#0aff00;stop-opacity:1" />
    </linearGradient>
    <linearGradient
       inkscape:collect="always"
       id="linearGradient4217">
      <stop
         style="stop-color:#ff0000;stop-opacity:1;"
         offset="0"
         id="stop4219" />
      <stop
         style="stop-color:#ff0000;stop-opacity:0;"
         offset="1"
         id="stop4221" />
    </linearGradient>
    <linearGradient
       id="linearGradient4179"
       inkscape:collect="always">
      <stop
         id="stop4181"
         offset="0"
         style="stop-color:#55d400;stop-opacity:0.04" />
      <stop
         style="stop-color:#7aa500;stop-opacity:0.24705882;"
         offset="0.32914105"
         id="stop4183" />
      <stop
         style="stop-color:#a56f00;stop-opacity:0.49411765;"
         offset="0.56063867"
         id="stop4185" />
      <stop
         id="stop4187"
         offset="1"
         style="stop-color:#ff0000;stop-opacity:1" />
    </linearGradient>
    <linearGradient
       inkscape:collect="always"
       id="linearGradient7802">
      <stop
         style="stop-color:#55d400;stop-opacity:0.04"
         offset="0"
         id="stop7804" />
      <stop
         id="stop4169"
         offset="0.32914105"
         style="stop-color:#7aa500;stop-opacity:0.24705882;" />
      <stop
         id="stop4167"
         offset="0.59941739"
         style="stop-color:#a56f00;stop-opacity:0.49411765;" />
      <stop
         style="stop-color:#ff0000;stop-opacity:1"
         offset="1"
         id="stop7806" />
    </linearGradient>
    <linearGradient
       id="linearGradient6936"
       osb:paint="solid"
       gradientTransform="matrix(4.0816323,0,0,4.081633,1375.4412,1388.0465)">
      <stop
         style="stop-color:#1ae629;stop-opacity:1;"
         offset="0"
         id="stop6938" />
    </linearGradient>
    <linearGradient
       id="linearGradient5048"
       osb:paint="solid">
      <stop
         style="stop-color:#ff0000;stop-opacity:1;"
         offset="0"
         id="stop5050" />
    </linearGradient>
    <inkscape:path-effect
       effect="spiro"
       id="path-effect4108"
       is_visible="true" />
    <inkscape:path-effect
       effect="spiro"
       id="path-effect4084"
       is_visible="true" />
    <inkscape:path-effect
       effect="powerstroke"
       id="path-effect4011"
       is_visible="true"
       offset_points="0,0.5379318"
       sort_points="true"
       interpolator_type="CubicBezierJohan"
       interpolator_beta="0.2"
       start_linecap_type="zerowidth"
       linejoin_type="round"
       miter_limit="4"
       end_linecap_type="zerowidth"
       cusp_linecap_type="round" />
    <inkscape:path-effect
       effect="spiro"
       id="path-effect4009"
       is_visible="true" />
    <inkscape:path-effect
       effect="powerstroke"
       id="path-effect3848"
       is_visible="true"
       offset_points="0,0.5"
       sort_points="true"
       interpolator_type="CubicBezierJohan"
       interpolator_beta="0.2"
       start_linecap_type="zerowidth"
       linejoin_type="round"
       miter_limit="4"
       end_linecap_type="zerowidth"
       cusp_linecap_type="round" />
    <inkscape:path-effect
       effect="spiro"
       id="path-effect3846"
       is_visible="true" />
    <inkscape:path-effect
       effect="powerstroke"
       id="path-effect3842"
       is_visible="true"
       offset_points="0,0.5"
       sort_points="true"
       interpolator_type="CubicBezierJohan"
       interpolator_beta="0.2"
       start_linecap_type="zerowidth"
       linejoin_type="round"
       miter_limit="4"
       end_linecap_type="zerowidth"
       cusp_linecap_type="round" />
    <linearGradient
       inkscape:collect="always"
       xlink:href="#linearGradient7802"
       id="linearGradient7808"
       x1="196.48956"
       y1="308.4231"
       x2="528.04126"
       y2="308.4231"
       gradientUnits="userSpaceOnUse" />
    <linearGradient
       inkscape:collect="always"
       xlink:href="#linearGradient4179"
       id="linearGradient4177"
       gradientUnits="userSpaceOnUse"
       x1="196.48956"
       y1="308.4231"
       x2="528.04126"
       y2="308.4231" />
    <linearGradient
       inkscape:collect="always"
       xlink:href="#linearGradient4217"
       id="linearGradient4223"
       x1="202.37394"
       y1="551.05386"
       x2="528.57142"
       y2="551.05386"
       gradientUnits="userSpaceOnUse" />
    <linearGradient
       inkscape:collect="always"
       xlink:href="#linearGradient4287"
       id="linearGradient4295"
       x1="195.98956"
       y1="308.4231"
       x2="528.54126"
       y2="308.4231"
       gradientUnits="userSpaceOnUse" />
  </defs>
  <sodipodi:namedview
     id="base"
     pagecolor="#ffffff"
     bordercolor="#666666"
     borderopacity="1.0"
     inkscape:pageopacity="0.0"
     inkscape:pageshadow="2"
     inkscape:zoom="0.7"
     inkscape:cx="228.78252"
     inkscape:cy="672.97026"
     inkscape:document-units="px"
     inkscape:current-layer="layer1"
     showgrid="false"
     inkscape:object-nodes="true"
     inkscape:snap-global="true"
     inkscape:snap-nodes="false"
     inkscape:snap-bbox="true"
     inkscape:snap-bbox-midpoints="true"
     inkscape:window-width="1366"
     inkscape:window-height="705"
     inkscape:window-x="-8"
     inkscape:window-y="-8"
     inkscape:window-maximized="1"
     inkscape:snap-others="true"
     inkscape:snap-text-baseline="true" />
  <metadata
     id="metadata3744">
    <rdf:RDF>
      <cc:Work
         rdf:about="">
        <dc:format>image/svg+xml</dc:format>
        <dc:type
           rdf:resource="http://purl.org/dc/dcmitype/StillImage" />
        <dc:title></dc:title>
      </cc:Work>
    </rdf:RDF>
  </metadata>
  <g
     inkscape:label="Layer 1"
     inkscape:groupmode="layer"
     id="layer1">
    <a
       id="a4171">
      <g
         id="g7818">
        <circle
           style="fill:url(#linearGradient7808);fill-opacity:1;stroke:none"
           id="path3747"
           cx="362.26541"
           cy="308.4231"
           r="165.77585" />
        <circle
           r="165.77585"
           cy="308.4231"
           cx="362.26541"
           id="circle4175"
           style="fill:url(#linearGradient4177);fill-opacity:1;stroke:none" />
        <circle
           style="fill:#ff0000;fill-opacity:1;stroke:url(#linearGradient4295)"
           id="circle4189"
           cx="362.26541"
           cy="308.4231"
           r="165.77585" />
      </g>
    </a>
    <g
       id="g4141">
      <g
         id="g4144">
        <g
           id="g4154">
          <g
             id="g4150">
            <g
               id="g4147">
              <path
                 inkscape:connector-curvature="0"
                 inkscape:original-d="M 202.8747,342.24833 371.64482,772.3337 528.57142,329.50506"
                 inkscape:path-effect="#path-effect4009;#path-effect4011"
                 id="path4007"
                 d="m 202.37394,342.44483 169.0205,429.98712 a 0.26905484,0.26887792 44.024849 0 0 0.5039,-0.008 L 528.57142,329.50506 371.63243,771.56467 203.37546,342.05183 Z"
                 style="fill:url(#linearGradient4223);fill-rule:evenodd;stroke:none;stroke-width:1px;stroke-linecap:butt;stroke-linejoin:miter;stroke-opacity:1" />
            </g>
          </g>
        </g>
      </g>
    </g>
    <path
       style="fill:#ffffff"
       d="m 300.11056,585.73865 c -39.10705,-99.81597 -71.10373,-181.94469 -71.10373,-182.50826 0,-0.56357 7.95495,6.88933 17.67767,16.56199 20.46941,20.36403 38.20136,31.43842 65.45668,40.8806 18.20307,6.30616 20.06829,6.54637 51.21594,6.59557 28.3588,0.0448 34.17524,-0.52998 47.40597,-4.68457 35.83427,-11.25235 65.74154,-32.14193 88.6705,-61.93444 3.09186,-4.01738 4.21367,-4.69856 3.32716,-2.02031 -4.1074,12.4091 -130.49169,367.53825 -130.97106,368.01761 -0.31647,0.31648 -32.57208,-81.09222 -71.67913,-180.90819 z"
       id="path4159"
       inkscape:connector-curvature="0" />
    <path
       style="fill:#ff0000"
       d="m 300.08505,585.78808 c -39.09302,-99.81685 -71.07822,-182.11317 -71.07822,-182.8807 0,-0.76754 5.6391,4.6327 12.53134,12.00052 20.95849,22.40469 46.30702,38.21611 76.43328,47.67608 13.10453,4.11497 19.18527,4.73563 46.39582,4.73563 27.21055,0 33.29129,-0.62066 46.39582,-4.73563 35.83427,-11.25235 65.74154,-32.14193 88.6705,-61.93444 3.1123,-4.04394 4.22535,-4.71627 3.34466,-2.02031 -3.76522,11.52614 -130.47471,367.50376 -130.99871,368.02777 -0.33895,0.33894 -32.60147,-81.05208 -71.69449,-180.86892 z"
       id="path4163"
       inkscape:connector-curvature="0" />
    <circle
       style="opacity:1;fill:#000000;fill-opacity:1;fill-rule:nonzero;stroke:none;stroke-width:0.99212599;stroke-miterlimit:4;stroke-dasharray:none"
       id="path7573"
       cx="364.62915"
       cy="305.62497"
       transform="matrix(0.99997036,0.00769872,-0.00769872,0.99997036,0,0)"
       r="72.013802" />
    <path
       style="fill:none;fill-rule:evenodd;stroke:#000000;stroke-width:1px;stroke-linecap:butt;stroke-linejoin:miter;stroke-opacity:1"
       d="m 364.28571,143.79078 0,88.57142 0,5.71429 c 0,0 0,-188.57142 0,-94.28571 z"
       id="path3399"
       inkscape:connector-curvature="0" />
    <path
       style="fill:none;fill-rule:evenodd;stroke:#000000;stroke-width:1px;stroke-linecap:butt;stroke-linejoin:miter;stroke-opacity:1"
       d="m 428.57143,325.21935 8.57143,7.14285 80,30"
       id="path3403"
       inkscape:connector-curvature="0" />
    <path
       style="opacity:0.03999999;fill:#00ff00;fill-opacity:0.24705882;fill-rule:nonzero;stroke:#ff4f00;stroke-width:1.41732287;stroke-miterlimit:4;stroke-dasharray:none;stroke-opacity:1"
       d="m 478.28382,346.45832 c -21.41,-8.10485 -40.40514,-15.7044 -42.21143,-16.88793 -3.16284,-2.07237 -3.23186,-2.53025 -1.86835,-12.39535 5.15987,-37.33202 -21.42586,-73.42872 -59.03096,-80.14912 l -10.10485,-1.80584 0,-46.21226 0,-46.21226 8.21429,0.81954 c 42.48061,4.23834 76.96409,20.11312 105.34962,48.49865 24.2275,24.2275 40.00522,54.01946 46.55829,87.91274 2.3128,11.96204 2.33533,45.38311 0.038,56.36545 -2.74381,13.1168 -6.15152,25.01113 -7.13417,24.90122 -0.48574,-0.0543 -18.40044,-6.73002 -39.81044,-14.83484 z"
       id="path3405"
       inkscape:connector-curvature="0" />
    <path
       style="opacity:0.03999999;fill:#008000;fill-opacity:0.24705882;fill-rule:nonzero;stroke:#ff4f00;stroke-width:1.41732287;stroke-miterlimit:4;stroke-dasharray:none;stroke-opacity:1"
       d="m 367.65828,754.52469 c -2.06996,-5.25873 -16.7375,-42.34703 -32.59455,-82.41846 C 319.20668,632.0348 291.5719,561.64194 273.65312,515.67766 231.04589,406.38393 232.22527,409.44983 232.21767,407.96187 c -0.004,-0.70795 6.26128,4.78019 13.92199,12.19589 7.66072,7.4157 19.61049,17.2528 26.55505,21.86024 21.17461,14.04847 50.96349,25.29869 65.91624,24.89426 6.69814,-0.18117 6.51143,-0.26663 -2.82843,-1.29456 -17.0078,-1.87186 -45.49716,-13.3953 -63.77026,-25.79393 -4.43078,-3.00637 -15.35935,-12.29705 -24.28571,-20.64598 -8.92636,-8.34892 -17.51802,-15.69016 -19.09258,-16.31387 -7.13088,-2.82466 -23.0986,-38.4942 -28.15788,-62.90055 -4.13608,-19.95277 -3.06915,-53.47475 2.3416,-73.57143 17.81319,-66.16183 74.18836,-114.30642 142.96483,-122.09245 7.07143,-0.80054 13.98214,-1.46081 15.35714,-1.46725 2.32992,-0.0109 2.5,3.14708 2.5,46.41685 l 0,46.42857 -4.64285,0.0211 c -2.55358,0.0116 -8.7616,0.99198 -13.79562,2.17858 -41.27481,9.72916 -65.42565,53.93211 -51.53125,94.31689 7.1786,20.86495 24.38095,37.90212 45.68401,45.24535 12.75024,4.39504 34.02027,4.31615 46.42857,-0.17222 18.20269,-6.58433 33.48039,-20.16925 41.6535,-37.03827 4.57176,-9.43596 5.29073,-10.24968 7.41871,-8.39657 2.3992,2.08929 78.29168,30.98799 81.37929,30.98799 2.52911,0 2.23306,0.93111 -5.22989,16.44855 -18.5716,38.61526 -62.06485,72.77267 -107.47644,84.40657 -4.6757,1.19786 -19.58116,2.68355 -33.12323,3.30153 -21.97014,1.00259 -22.9295,1.1428 -8.90765,1.3019 31.9607,0.36266 49.80934,-3.17503 74.04577,-14.6762 18.27818,-8.67375 32.40947,-18.97948 49.33673,-35.98057 8.9318,-8.97076 15.92825,-15.48887 15.54768,-14.4847 -0.38057,1.00417 -14.03397,39.43292 -30.34088,85.3972 -42.31628,119.2768 -97.83915,274.72603 -98.28506,275.17194 -0.20859,0.20859 -2.07283,-3.92334 -4.14277,-9.18205 z"
       id="path3407"
       inkscape:connector-curvature="0" />
    <path
       style="opacity:0.03999999;fill:#008000;fill-opacity:0.24705882;fill-rule:nonzero;stroke:#ff4f00;stroke-width:1.41732287;stroke-miterlimit:4;stroke-dasharray:none;stroke-opacity:1"
       d="m 367.49292,752.51347 c -3.35297,-8.00501 -30.82772,-77.44977 -49.61543,-125.40724 -3.84762,-9.82143 -13.09814,-33.39111 -20.5567,-52.37707 -37.40147,-95.2064 -63.82559,-163.66894 -63.35288,-164.14166 0.24368,-0.24367 6.85879,5.3495 14.70026,12.42927 16.83217,15.19715 29.00986,23.58617 45.24178,31.16637 17.70416,8.26773 29.22833,11.70823 41.15828,12.28765 l 10.71429,0.52038 -8.26702,-1.32625 c -19.58865,-3.14256 -46.57839,-13.95508 -63.47412,-25.42875 -4.72336,-3.20757 -15.26388,-11.82455 -23.42339,-19.14885 -8.15951,-7.32432 -17.60026,-15.4748 -20.97945,-18.11223 -4.80284,-3.74856 -7.65058,-7.95287 -13.04593,-19.26065 -7.35313,-15.41097 -13.09247,-31.92028 -15.95468,-45.89392 -2.43997,-11.91218 -2.13117,-47.39315 0.53462,-61.42858 9.05909,-47.69632 42.7673,-91.96077 87.16498,-114.46204 19.02911,-9.64418 49.37489,-17.68081 66.76153,-17.68081 6.78277,0 6.80113,0.0131 7.48556,5.35714 0.37736,2.94643 0.79603,23.20628 0.93036,45.0219 0.19313,31.36224 -0.142,39.7724 -1.60125,40.17906 -1.01502,0.28288 -6.6254,1.2557 -12.4675,2.16184 -35.95317,5.57649 -62.14255,39.23707 -59.61973,76.6278 2.75729,40.86589 38.1271,70.81506 79.30969,67.155 25.5261,-2.2686 48.05014,-18.2539 59.51254,-42.23601 3.58902,-7.50909 4.34518,-8.29559 6.31959,-6.57318 2.22839,1.94396 36.79946,15.58199 66.15391,26.09723 8.58698,3.07599 15.3474,6.29896 15.35715,7.32139 0.0258,2.70734 -8.06089,18.28987 -14.99166,28.88783 -21.44544,32.79265 -63.91134,61.75698 -101.41949,69.17428 -6.28571,1.24302 -21.07142,2.8528 -32.85714,3.57729 l -21.42857,1.31727 25.71429,-0.45291 c 22.90974,-0.40352 27.11655,-0.86875 38.57142,-4.26562 16.41098,-4.86658 36.93038,-14.5684 49.0736,-23.20258 5.2238,-3.71429 15.77079,-12.82619 23.43773,-20.24869 7.66695,-7.42249 14.2514,-13.18393 14.63213,-12.80321 0.8145,0.8145 -3.82868,14.57384 -23.54141,69.76131 -7.99863,22.39286 -19.90323,55.82143 -26.45467,74.28571 -6.55143,18.46429 -19.59713,55.10715 -28.99045,81.42858 -9.39331,26.32142 -23.36648,65.53571 -31.05148,87.14285 -7.685,21.60715 -14.41085,39.7904 -14.94633,40.40725 -0.53549,0.61685 -2.66597,-2.91886 -4.73443,-7.85715 z"
       id="path3409"
       inkscape:connector-curvature="0" />
    <path
       style="opacity:0.03999999;fill:#008000;fill-opacity:0.24705882;fill-rule:nonzero;stroke:#ff4f00;stroke-width:1.41732287;stroke-miterlimit:4;stroke-dasharray:none;stroke-opacity:1"
       d="m 368.50039,753.43059 c -2.22933,-5.32722 -42.32805,-106.8716 -52.98675,-134.1815 -2.75989,-7.07143 -15.47121,-39.53572 -28.2474,-72.14286 -42.50978,-108.49271 -51.24232,-131.43187 -50.36705,-132.30716 0.47754,-0.47753 6.72177,4.38006 13.87606,10.79466 20.45188,18.3373 39.40642,29.56107 62.8726,37.22946 11.47517,3.74991 28.7741,5.97694 30.78753,3.96353 0.43374,-0.43375 -3.58572,-1.52839 -8.93212,-2.43252 -24.26172,-4.10293 -53.21777,-17.48548 -72.07302,-33.30984 -38.26202,-32.11156 -39.3976,-33.27727 -46.08712,-47.31006 -14.45446,-30.32154 -18.86229,-51.1184 -17.58035,-82.94716 1.73777,-43.14666 16.90042,-77.2865 47.9689,-108.0055 20.57512,-20.34369 39.84909,-31.97285 67.33656,-40.62825 13.1313,-4.13485 41.34555,-8.79004 44.93249,-7.4136 1.9287,0.74011 2.21037,6.46572 2.21037,44.93182 l 0,44.08361 -9.64286,1.73739 c -19.39443,3.49436 -32.09944,10.28435 -44.35293,23.70374 -12.70888,13.91811 -18.86135,29.68299 -18.86135,48.32971 0,20.45828 5.85045,36.10371 18.79816,50.27057 23.89085,26.1404 64.01577,31.48414 93.44774,12.44516 10.58907,-6.84987 21.02877,-18.35703 26.5161,-29.22736 4.63994,-9.19169 4.38417,-9.13014 16.238,-3.90704 3.14286,1.38481 16.32143,6.50774 29.28571,11.38427 12.96429,4.87653 27.94806,10.62638 33.29729,12.77747 l 9.72584,3.91106 -6.52983,12.74874 c -12.2747,23.96491 -31.29125,44.91177 -55.19864,60.80166 -29.84344,19.83524 -46.26521,24.65598 -94.86609,27.84865 -9.4995,0.62405 -13.06932,1.28006 -10.6551,1.95806 5.51142,1.5478 49.67759,-0.98763 57.79796,-3.31798 20.34782,-5.83933 42.19687,-16.42992 56.17717,-27.22998 4.4597,-3.44521 13.73355,-11.53987 20.60855,-17.98812 12.14424,-11.39043 13.98347,-12.29319 11.12852,-5.4622 -0.75431,1.80482 -11.95058,33.17435 -24.8806,69.71007 -66.36597,187.52705 -96.61988,271.80945 -98.16348,273.46721 -0.72284,0.77632 -2.20469,-0.99721 -3.58086,-4.28571 z"
       id="path3411"
       inkscape:connector-curvature="0" />
    <path
       style="opacity:0.03999999;fill:#008000;fill-opacity:0.24705882;fill-rule:nonzero;stroke:#ff4f00;stroke-width:1.41732287;stroke-miterlimit:4;stroke-dasharray:none;stroke-opacity:1"
       d="m 370.39513,756.20659 c -1.68865,-2.7323 -102.03585,-258.15056 -125.56856,-319.61536 -3.86873,-10.10469 -6.84344,-18.89427 -6.61048,-19.53243 0.23297,-0.63816 5.245,3.00509 11.13786,8.09609 27.20694,23.50483 54.37578,37.69371 80.19917,41.88391 11.10201,1.80146 15.51511,1.88012 15.51511,0.27657 0,-0.6707 -6.94714,-2.87157 -15.43809,-4.89084 -31.09671,-7.39526 -51.77352,-19.03643 -84.21539,-47.4138 -20.26108,-17.72264 -23.6506,-22.02024 -31.10675,-39.44041 -11.018,-25.74192 -12.49541,-32.53283 -13.18953,-60.62533 -0.71895,-29.09785 1.09544,-42.79261 8.27637,-62.46883 14.54341,-39.84989 48.62581,-75.98433 87.57174,-92.84427 15.93982,-6.90045 36.88426,-12.34277 51.86108,-13.47586 l 11.61656,-0.87887 0.70896,6.27168 c 0.38993,3.44942 0.62675,23.25733 0.5263,44.01758 l -0.18267,37.74591 -12.14286,2.6028 c -24.0694,5.15922 -41.20978,17.64414 -51.65341,37.62397 -11.93598,22.83484 -12.38622,45.00784 -1.36124,67.03726 14.92753,29.82724 43.23311,44.77794 76.87002,40.6019 23.1383,-2.87263 48.61023,-22.43352 57.65863,-44.27829 1.87826,-4.53451 -4.02159,-6.47627 46.87857,13.57909 19.71287,7.76714 68.96352,26.93996 39.12743,10.7186 -2.38666,-1.29759 -13.88774,29.61014 -23.61014,41.78651 -23.38373,29.28589 -62.17758,53.4257 -94.80488,58.99317 -10.91071,1.86179 -41.01431,4.97829 -49.81927,5.15759 -2.76661,0.0563 -2.77141,0.108 -0.1515,1.62937 3.10597,1.80369 41.67847,0.47652 52.29436,-1.7993 18.55987,-3.97884 43.60144,-15.0733 59.36274,-26.30016 4.75666,-3.3882 14.34385,-11.36277 21.30486,-17.72128 6.96103,-6.35853 12.8979,-11.31946 13.19306,-11.0243 0.4433,0.44331 -17.36837,51.77083 -35.26263,101.61554 -2.25657,6.28572 -9.35743,26.21429 -15.77969,44.28572 -53.3141,150.01935 -69.00111,193.53811 -71.14428,197.36774 -0.70327,1.25668 -1.63093,1.71493 -2.06145,1.01833 z"
       id="path3413"
       inkscape:connector-curvature="0"
       sodipodi:nodetypes="sscsssssssssscsscsssssssssccssssssss" />
    <path
       style="opacity:0.03999999;fill:#008000;fill-opacity:0.24705882;fill-rule:nonzero;stroke:#ff4f00;stroke-width:1.41732287;stroke-miterlimit:4;stroke-dasharray:none;stroke-opacity:1"
       d="m 507.21109,356.94462 c -3.92857,-1.58682 -13.25,-5.11242 -20.71428,-7.83466 -7.46429,-2.72226 -14.53572,-5.35623 -15.71429,-5.85326 -1.17857,-0.49704 -2.46429,-1.0131 -2.85714,-1.1468 -1.97939,-0.67363 -9.8659,-3.87597 -14.34514,-5.82488 -2.78268,-1.21075 -5.99696,-2.34558 -7.14285,-2.52185 -1.14589,-0.17627 -4.72046,-1.81111 -7.94348,-3.63297 l -5.86005,-3.31247 1.26029,-6.64147 c 5.04878,-26.60604 -7.4514,-56.18723 -30.14761,-71.34318 -11.83636,-7.90402 -24.73434,-12.64581 -35.46402,-13.03795 l -3.21429,-0.11747 0,-45.71429 0,-45.71428 6.78572,0.002 c 15.55759,0.004 42.18745,6.79115 60.22042,15.34728 30.42182,14.43428 58.51915,41.43497 76.28294,73.30558 5.58894,10.02733 14.99227,36.93667 16.19508,46.34519 0.40179,3.14286 0.99709,7.32143 1.32289,9.28571 0.72433,4.367 0.77571,34.69222 0.0694,40.97927 -0.28116,2.5029 -1.95105,10.3779 -3.71086,17.5 -3.59574,14.55232 -3.58992,14.54846 -15.02277,9.93055 l 10e-6,0 z"
       id="path3415"
       inkscape:connector-curvature="0" />
    <path
       style="opacity:0.03999999;fill:#008000;fill-opacity:0.24705882;fill-rule:nonzero;stroke:#ff4f00;stroke-width:1.41732287;stroke-miterlimit:4;stroke-dasharray:none;stroke-opacity:1"
       d="m 369.57825,752.82052 c -0.77284,-1.96429 -13.73429,-34.75 -28.8032,-72.85715 C 277.96483,521.12529 238.82691,420.01422 239.7839,419.05723 c 0.47856,-0.47856 9.66473,6.59694 23.14148,17.82439 19.74556,16.44998 56.48842,31.65318 76.49888,31.65318 3.10419,0 5.64397,-0.61706 5.64397,-1.37123 0,-1.38324 -1.41578,-1.84743 -22.14285,-7.25981 -23.59111,-6.16026 -43.21708,-17.03164 -67.85715,-37.58803 -17.42148,-14.53416 -26.907,-23.66137 -31.47091,-30.28211 -6.09241,-8.8381 -16.35263,-34.28789 -18.97663,-47.07025 -2.7638,-13.46337 -3.93872,-44.1492 -2.26266,-59.09463 5.53866,-49.38818 36.94491,-93.89332 85.59717,-121.29797 15.1422,-8.52923 44.73298,-16.87625 62.88973,-17.74004 l 9.2233,-0.43879 0.37782,43.03295 0.37783,43.03294 -12.52069,3.05316 c -17.56121,4.28229 -26.57491,9.12239 -37.69212,20.23959 -30.0002,30.00021 -30.0275,75.73192 -0.0628,105.29124 30.67845,30.26344 80.17513,28.06954 108.05128,-4.78929 4.37784,-5.16036 9.2222,-11.85713 10.76522,-14.88174 1.54305,-3.0246 3.32403,-5.81973 3.95775,-6.21139 0.63371,-0.39166 9.48218,2.52913 19.66327,6.49062 39.20864,15.25624 50.11924,19.41788 55.26433,21.07955 l 5.3247,1.71969 -4.98552,9.89991 c -2.74204,5.44496 -4.4953,9.90976 -3.89613,9.92179 0.59916,0.0114 0.41566,0.49417 -0.40777,1.07143 -0.82344,0.57725 -3.178,3.96105 -5.23235,7.51957 -11.24539,19.47903 -34.36902,39.87753 -62.60216,55.22446 -17.3535,9.433 -33.61837,13.59868 -62.81119,16.08692 -22.5622,1.9231 -27.43001,2.7411 -26.38395,4.43365 1.1305,1.82918 27.52901,1.71914 44.61425,-0.18597 15.93303,-1.77665 29.489,-6.1165 48.82386,-15.63065 16.42964,-8.08457 23.28554,-13.09888 44.6903,-32.68594 3.77906,-3.45813 7.15317,-6.00534 7.49803,-5.66047 0.74901,0.749 -0.43606,4.14546 -53.26589,152.66227 -46.26145,130.05161 -65.69085,183.96003 -67.44908,187.14286 -0.95265,1.7245 -1.45809,1.44558 -2.58893,-1.42857 z"
       id="path3417"
       inkscape:connector-curvature="0" />
    <path
       style="opacity:0.03999999;fill:#008000;fill-opacity:0.24705882;fill-rule:nonzero;stroke:#ff4f00;stroke-width:1.41732287;stroke-miterlimit:4;stroke-dasharray:none;stroke-opacity:1"
       d="m 499.09513,352.87047 c -22.38613,-8.09821 -52.42834,-19.94894 -59.3295,-23.40368 -5.04728,-2.52669 -5.88493,-3.53782 -5.19804,-6.27459 1.24594,-4.96424 1.52143,-22.14321 0.40687,-25.37168 -0.54251,-1.57143 -1.35622,-5.51018 -1.80827,-8.75275 -0.45204,-3.24258 -2.78044,-9.2173 -5.17421,-13.27715 -2.39377,-4.05985 -4.35232,-7.72061 -4.35232,-8.13501 0,-0.89398 -2.09242,-3.22831 -11.11643,-12.40162 -7.38002,-7.50212 -25.74879,-17.32947 -35.31214,-18.89211 -11.82842,-1.93275 -10.71428,2.97635 -10.71428,-47.20906 0,-41.83238 0.17099,-44.90027 2.5,-44.85307 10.14905,0.20569 38.90834,6.72354 53.21428,12.0602 31.12333,11.61018 67.14881,43.04652 82.47289,71.96701 1.93404,3.65003 4.01058,7.27927 4.61454,8.06498 2.36631,3.07846 10.28769,25.75232 13.02829,37.29176 3.74114,15.75222 4.07784,51.76656 0.62632,66.99396 -2.85432,12.59277 -4.93025,17.87703 -6.98678,17.78493 -0.88682,-0.0397 -8.47887,-2.55617 -16.87122,-5.59212 z"
       id="path3419"
       inkscape:connector-curvature="0" />
    <path
       style="opacity:0.03999999;fill:#00ff00;fill-opacity:0.24705882;fill-rule:nonzero;stroke:#ff4f00;stroke-width:1.41732287;stroke-miterlimit:4;stroke-dasharray:none;stroke-opacity:1"
       d="m 337.77925,463.70053 c -40.8913,-12.34786 -53.70131,-18.75084 -79.85387,-39.91436 -30.04308,-24.31185 -38.16737,-35.08628 -48.3795,-64.1608 -9.87371,-28.11098 -9.96685,-74.81901 -0.20587,-103.23343 13.93949,-40.57808 50.08611,-79.4534 89.29965,-96.04082 13.62604,-5.76384 36.48162,-11.61572 49.74683,-12.73705 l 10.96746,-0.92709 0.20937,21.99534 c 0.11514,12.09744 0.27587,31.2511 0.35714,42.56371 l 0.14777,20.56836 -12.14285,3.25515 c -16.0049,4.29044 -20.81126,6.42929 -30.05387,13.37406 -19.18508,14.41539 -29.94613,36.07582 -29.94613,60.27722 0,28.19515 15.5123,53.26031 40.58738,65.58205 12.67486,6.22836 22.29062,8.51765 35.77689,8.51765 23.03876,0 48.2655,-14.6329 62.31898,-36.14843 2.97865,-4.56022 5.64996,-8.99407 5.93628,-9.85303 0.65995,-1.97986 8.13685,0.45733 42.52332,13.86101 14.53572,5.66596 28.83929,11.08673 31.78572,12.04617 2.94643,0.95943 5.35714,2.01558 5.35714,2.34698 0,1.33671 -12.62757,26.03227 -16.37943,32.03301 -5.69914,9.11523 -25.14934,27.91494 -38.81123,37.51323 -14.96685,10.5151 -35.3269,20.28807 -49.88105,23.94326 -6.32516,1.58852 -22.46235,4.01535 -35.86042,5.39294 -23.79071,2.44617 -24.57377,2.44021 -33.49971,-0.25513 z"
       id="path3649"
       inkscape:connector-curvature="0" />
    <path
       style="opacity:0.03999999;fill:#00ff00;fill-opacity:0.24705882;fill-rule:nonzero;stroke:#ff4f00;stroke-width:1.41732287;stroke-miterlimit:4;stroke-dasharray:none;stroke-opacity:1"
       d="M 369.88162,760.42873 C 322.37422,641.2374 232.21109,410.29652 232.21109,407.80392 c 0,-0.67322 5.94643,4.56532 13.21429,11.64121 7.26785,7.07589 17.39285,15.7633 22.5,19.30537 10.42071,7.22732 22.05077,14.08294 23.82581,14.04474 0.6458,-0.0143 -3.29042,-2.63057 -8.74716,-5.81481 -12.78338,-7.45966 -18.17149,-11.70881 -36.91771,-29.11397 -8.47577,-7.86944 -16.51174,-14.71544 -17.85771,-15.21334 -6.56389,-2.42815 -22.77416,-38.78992 -27.62898,-61.97546 -3.04169,-14.52642 -3.69002,-43.31274 -1.30877,-58.11031 9.62825,-59.8319 52.94204,-111.033 110.48574,-130.60487 11.24688,-3.82531 27.87368,-7.07026 43.50592,-8.49078 l 10.35714,-0.94116 0,46.57356 0,46.57356 -3.92857,0.0211 c -6.52596,0.0351 -21.51058,4.05075 -29.86686,8.0039 -19.13731,9.05339 -35.31685,31.23949 -39.10408,53.62125 -3.73556,22.07635 3.97753,45.44905 20.38504,61.77204 25.92337,25.78981 61.48609,29.02028 93.04149,8.45174 10.36154,-6.7539 18.57815,-17.89687 27.49341,-37.28524 0.105,-0.22834 2.36122,0.80874 5.01382,2.30467 2.6526,1.49591 22.0106,9.07561 43.01778,16.84376 21.0072,7.76815 38.20363,14.67204 38.21429,15.34198 0.0539,3.38006 -12.0423,26.25935 -18.03297,34.10859 -21.32259,27.93773 -50.48222,49.18843 -83.3762,60.76216 -15.5929,5.48634 -20.08303,6.18482 -47.77829,7.43235 -21.57086,0.97167 -22.0007,1.04412 -7.22171,1.21729 31.93388,0.37417 49.80285,-3.16613 74.04577,-14.67039 17.77795,-8.43637 32.45083,-19.06005 48.67645,-35.2435 8.56865,-8.54637 15.79559,-15.53885 16.05986,-15.53885 0.26427,0 -0.45718,2.41071 -1.60324,5.35714 -1.14606,2.94643 -12.65134,35.25 -25.5673,71.78571 -30.526,86.34973 -97.87164,275.26876 -99.97997,280.46536 l -1.63777,4.03679 -1.60899,-4.03679 z m -34.0991,-294.8149 c -8.23333,-0.90934 -24.20915,-5.72886 -40,-12.06701 -1.89064,-0.75888 -2.37389,-0.66779 -1.42857,0.26927 4.67714,4.63623 33.11429,13.1171 43.57143,12.9944 l 7.85714,-0.0922 -10,-1.10445 0,-6e-5 z"
       id="path3651"
       inkscape:connector-curvature="0" />
  </g>
</svg>
